<?xml version="1.0" encoding="UTF-8"?>
<svg xmlns="http://www.w3.org/2000/svg" xmlns:xlink="http://www.w3.org/1999/xlink" width="1306px" height="225px">
          <path fill-rule="evenodd" fill="rgb(35, 23, 123)" d="M-0.011,9.318 L8.682,6.988 L11.011,15.682 L2.318,18.011 L-0.011,9.318 Z"></path>
          <path fill-rule="evenodd" fill="rgb(35, 23, 123)" d="M607.694,164.319 L612.680,161.693 L615.306,166.680 L610.320,169.305 L607.694,164.319 Z"></path>
          <path fill-rule="evenodd" fill="rgb(93, 203, 250)" d="M667.343,205.646 L679.152,213.179 L671.620,224.988 L659.810,217.456 L667.343,205.646 Z"></path>
          <path fill-rule="evenodd" fill="rgb(93, 203, 250)" d="M915.839,-0.008 L924.997,5.833 L919.156,14.991 L909.998,9.150 L915.839,-0.008 Z"></path>
          <path fill-rule="evenodd" fill="rgb(35, 23, 123)" d="M989.000,93.000 C993.418,93.000 997.000,96.582 997.000,101.000 C997.000,105.418 993.418,109.000 989.000,109.000 C984.582,109.000 981.000,105.418 981.000,101.000 C981.000,96.582 984.582,93.000 989.000,93.000 Z"></path>
          <path fill-rule="evenodd" fill="rgb(35, 23, 123)" d="M1165.000,8.000 C1167.761,8.000 1170.000,10.238 1170.000,13.000 C1170.000,15.761 1167.761,18.000 1165.000,18.000 C1162.239,18.000 1160.000,15.761 1160.000,13.000 C1160.000,10.238 1162.239,8.000 1165.000,8.000 Z"></path>
          <path fill-rule="evenodd" fill="rgb(93, 203, 250)" d="M1303.500,118.000 C1304.881,118.000 1306.000,119.119 1306.000,120.500 C1306.000,121.880 1304.881,123.000 1303.500,123.000 C1302.119,123.000 1301.000,121.880 1301.000,120.500 C1301.000,119.119 1302.119,118.000 1303.500,118.000 Z"></path>
          <path fill-rule="evenodd" fill="rgb(93, 203, 250)" d="M61.000,112.000 C62.657,112.000 64.000,113.343 64.000,115.000 C64.000,116.657 62.657,118.000 61.000,118.000 C59.343,118.000 58.000,116.657 58.000,115.000 C58.000,113.343 59.343,112.000 61.000,112.000 Z"></path>
          <path fill-rule="evenodd" fill="rgb(74, 92, 246)" d="M265.500,-0.000 C271.299,-0.000 276.000,4.701 276.000,10.500 C276.000,16.299 271.299,21.000 265.500,21.000 C259.701,21.000 255.000,16.299 255.000,10.500 C255.000,4.701 259.701,-0.000 265.500,-0.000 Z"></path>
          <path fill-rule="evenodd" fill="rgb(35, 23, 123)" d="M185.500,131.000 C187.985,131.000 190.000,133.015 190.000,135.500 C190.000,137.985 187.985,140.000 185.500,140.000 C183.015,140.000 181.000,137.985 181.000,135.500 C181.000,133.015 183.015,131.000 185.500,131.000 Z"></path>
        </svg>